/videos/5c689a6e-10ba-3a0e-97c9-064b171ea9bd/hls1/main/0.ts

{"Protocol":0,"Id":"5c689a6e10ba3a0e97c9064b171ea9bd","Path":"/data/tvshows/The IT Crowd/Season 3/The IT Crowd - S03E04 - The Speech DVD Proper.mkv","EncoderPath":null,"EncoderProtocol":null,"Type":0,"Container":"mkv,webm","Size":207253904,"Name":"The IT Crowd - S03E04 - The Speech DVD Proper","IsRemote":false,"ETag":"ddac35dff8d3102155332744fd0dd0ee","RunTimeTicks":14550819840,"ReadAtNativeFramerate":false,"IgnoreDts":false,"IgnoreIndex":false,"GenPtsInput":false,"SupportsTranscoding":true,"SupportsDirectStream":true,"SupportsDirectPlay":true,"IsInfiniteStream":false,"RequiresOpening":false,"OpenToken":null,"RequiresClosing":false,"LiveStreamId":null,"BufferMs":null,"RequiresLooping":false,"SupportsProbing":true,"VideoType":0,"IsoType":null,"Video3DFormat":null,"MediaStreams":[{"Codec":"h264","CodecTag":null,"Language":null,"ColorRange":null,"ColorSpace":"smpte170m","ColorTransfer":"bt709","ColorPrimaries":"bt470bg","DvVersionMajor":null,"DvVersionMinor":null,"DvProfile":null,"DvLevel":null,"RpuPresentFlag":null,"ElPresentFlag":null,"BlPresentFlag":null,"DvBlSignalCompatibilityId":null,"Comment":null,"TimeBase":"1/1000","CodecTimeBase":null,"Title":null,"VideoRange":"SDR","VideoRangeType":"SDR","VideoDoViTitle":null,"LocalizedUndefined":null,"LocalizedDefault":null,"LocalizedForced":null,"LocalizedExternal":null,"DisplayTitle":"480p H264 SDR","NalLengthSize":"4","IsInterlaced":false,"IsAVC":true,"ChannelLayout":null,"BitRate":1139476,"BitDepth":8,"RefFrames":1,"PacketLength":null,"Channels":null,"SampleRate":null,"IsDefault":true,"IsForced":false,"Height":412,"Width":720,"AverageFrameRate":25,"RealFrameRate":25,"Profile":"High","Type":1,"AspectRatio":"180:103","Index":0,"Score":null,"IsExternal":false,"DeliveryMethod":null,"DeliveryUrl":null,"IsExternalUrl":null,"IsTextSubtitleStream":false,"SupportsExternalStream":false,"Path":null,"PixelFormat":"yuv420p","Level":50,"IsAnamorphic":null},{"Codec":"aac","CodecTag":null,"Language":"eng","ColorRange":null,"ColorSpace":null,"ColorTransfer":null,"ColorPrimaries":null,"DvVersionMajor":null,"DvVersionMinor":null,"DvProfile":null,"DvLevel":null,"RpuPresentFlag":null,"ElPresentFlag":null,"BlPresentFlag":null,"DvBlSignalCompatibilityId":null,"Comment":null,"TimeBase":"1/1000","CodecTimeBase":null,"Title":"Stereo","VideoRange":null,"VideoRangeType":null,"VideoDoViTitle":null,"LocalizedUndefined":null,"LocalizedDefault":null,"LocalizedForced":null,"LocalizedExternal":null,"DisplayTitle":"Stereo - English - AAC - Default","NalLengthSize":null,"IsInterlaced":false,"IsAVC":null,"ChannelLayout":"stereo","BitRate":192000,"BitDepth":null,"RefFrames":null,"PacketLength":null,"Channels":2,"SampleRate":48000,"IsDefault":true,"IsForced":false,"Height":null,"Width":null,"AverageFrameRate":null,"RealFrameRate":null,"Profile":"LC","Type":0,"AspectRatio":null,"Index":1,"Score":null,"IsExternal":false,"DeliveryMethod":null,"DeliveryUrl":null,"IsExternalUrl":null,"IsTextSubtitleStream":false,"SupportsExternalStream":false,"Path":null,"PixelFormat":null,"Level":0,"IsAnamorphic":null},{"Codec":"DVDSUB","CodecTag":null,"Language":"eng","ColorRange":null,"ColorSpace":null,"ColorTransfer":null,"ColorPrimaries":null,"DvVersionMajor":null,"DvVersionMinor":null,"DvProfile":null,"DvLevel":null,"RpuPresentFlag":null,"ElPresentFlag":null,"BlPresentFlag":null,"DvBlSignalCompatibilityId":null,"Comment":null,"TimeBase":"1/1000","CodecTimeBase":null,"Title":null,"VideoRange":null,"VideoRangeType":null,"VideoDoViTitle":null,"LocalizedUndefined":"Undefined","LocalizedDefault":"Default","LocalizedForced":"Forced","LocalizedExternal":"External","DisplayTitle":"English - Default - DVDSUB","NalLengthSize":null,"IsInterlaced":false,"IsAVC":null,"ChannelLayout":null,"BitRate":null,"BitDepth":null,"RefFrames":null,"PacketLength":null,"Channels":null,"SampleRate":null,"IsDefault":true,"IsForced":false,"Height":null,"Width":null,"AverageFrameRate":null,"RealFrameRate":null,"Profile":null,"Type":2,"AspectRatio":null,"Index":2,"Score":null,"IsExternal":false,"DeliveryMethod":null,"DeliveryUrl":null,"IsExternalUrl":null,"IsTextSubtitleStream":false,"SupportsExternalStream":false,"Path":null,"PixelFormat":null,"Level":0,"IsAnamorphic":null}],"MediaAttachments":[],"Formats":[],"Bitrate":1331476,"Timestamp":null,"RequiredHttpHeaders":{},"TranscodingUrl":null,"TranscodingSubProtocol":null,"TranscodingContainer":null,"AnalyzeDurationMs":null,"DefaultAudioStreamIndex":null,"DefaultSubtitleStreamIndex":null}

/usr/lib/jellyfin-ffmpeg/ffmpeg -analyzeduration 200M -f matroska,webm -autorotate 0 -i file:"/data/tvshows/The IT Crowd/Season 3/The IT Crowd - S03E04 - The Speech DVD Proper.mkv" -map_metadata -1 -map_chapters -1 -threads 0 -map 0:0 -map 0:1 -map -0:0 -codec:v:0 libx264 -preset veryfast -crf 23 -maxrate 5697380 -bufsize 11394760 -profile:v:0 high -level 50 -x264opts:0 subme=0:me_range=4:rc_lookahead=10:me=dia:no_chroma_me:8x8dct=0:partitions=none -force_key_frames:0 "expr:gte(t,0+n_forced*3)" -sc_threshold:v:0 0 -filter_complex "[0:2]scale=s=720x412:flags=fast_bilinear[sub];[0:0]setparams=color_primaries=bt709:color_trc=bt709:colorspace=bt709,scale=trunc(min(max(iw\,ih*a)\,min(720\,412*a))/2)*2:trunc(min(max(iw/a\,ih)\,min(720/a\,412))/2)*2,format=yuv420p[main];[main][sub]overlay=eof_action=endall:shortest=1:repeatlast=0" -start_at_zero -codec:a:0 copy -copyts -avoid_negative_ts disabled -max_muxing_queue_size 2048 -f hls -max_delay 5000000 -hls_time 3 -hls_segment_type mpegts -start_number 0 -hls_segment_filename "/config/data/transcodes/d5789d2c9509f960933b9c84b5249f53%d.ts" -hls_playlist_type vod -hls_list_size 0 -y "/config/data/transcodes/d5789d2c9509f960933b9c84b5249f53.m3u8"


ffmpeg version 5.1.3-Jellyfin Copyright (c) 2000-2022 the FFmpeg developers
  built with gcc 11 (Ubuntu 11.3.0-1ubuntu1~22.04.1)
  configuration: --prefix=/usr/lib/jellyfin-ffmpeg --target-os=linux --extra-libs=-lfftw3f --extra-version=Jellyfin --disable-doc --disable-ffplay --disable-ptx-compression --disable-static --disable-libxcb --disable-sdl2 --disable-xlib --enable-lto --enable-gpl --enable-version3 --enable-shared --enable-gmp --enable-gnutls --enable-chromaprint --enable-libdrm --enable-libass --enable-libfreetype --enable-libfribidi --enable-libfontconfig --enable-libbluray --enable-libmp3lame --enable-libopus --enable-libtheora --enable-libvorbis --enable-libopenmpt --enable-libdav1d --enable-libwebp --enable-libvpx --enable-libx264 --enable-libx265 --enable-libzvbi --enable-libzimg --enable-libfdk-aac --arch=amd64 --enable-libsvtav1 --enable-libshaderc --enable-libplacebo --enable-vulkan --enable-opencl --enable-vaapi --enable-amf --enable-libmfx --enable-ffnvcodec --enable-cuda --enable-cuda-llvm --enable-cuvid --enable-nvdec --enable-nvenc
  libavutil      57. 28.100 / 57. 28.100
  libavcodec     59. 37.100 / 59. 37.100
  libavformat    59. 27.100 / 59. 27.100
  libavdevice    59.  7.100 / 59.  7.100
  libavfilter     8. 44.100 /  8. 44.100
  libswscale      6.  7.100 /  6.  7.100
  libswresample   4.  7.100 /  4.  7.100
  libpostproc    56.  6.100 / 56.  6.100
Input #0, matroska,webm, from 'file:/data/tvshows/The IT Crowd/Season 3/The IT Crowd - S03E04 - The Speech DVD Proper.mkv':
  Metadata:
    COMPATIBLE_BRANDS: isomiso2avc1mp41
    MAJOR_BRAND     : mp42
    MINOR_VERSION   : 512
    ENCODER         : Lavf60.3.100
  Duration: 00:24:15.08, start: 0.000000, bitrate: 1139 kb/s
  Stream #0:0: Video: h264 (High), yuv420p(tv, smpte170m/bt470bg/bt709, progressive), 720x412 [SAR 1:1 DAR 180:103], 25 fps, 25 tbr, 1k tbn (default)
    Metadata:
      HANDLER_NAME    : VideoHandler
      VENDOR_ID       : [0][0][0][0]
      DURATION        : 00:24:15.061000000
  Stream #0:1(eng): Audio: aac (LC), 48000 Hz, stereo, fltp (default)
    Metadata:
      HANDLER_NAME    : Stereo
      VENDOR_ID       : [0][0][0][0]
      DURATION        : 00:24:15.082000000
  Stream #0:2(eng): Subtitle: dvd_subtitle, 720x576 (default)
    Metadata:
      HANDLER_NAME    : SubtitleHandler
      DURATION        : 00:23:45.179000000
Stream mapping:
  Stream #0:0 (h264) -> setparams:default
  Stream #0:2 (dvdsub) -> scale:default
  overlay:default -> Stream #0:0 (libx264)
  Stream #0:1 -> #0:1 (copy)
Press [q] to stop, [?] for help
[matroska,webm @ 0x55a83088df40] sub2video: using 720x412 canvas
[libx264 @ 0x55a8308bf840] using SAR=1/1
[libx264 @ 0x55a8308bf840] using cpu capabilities: MMX2 SSE2Fast SSSE3 SSE4.2 AVX FMA3 BMI2 AVX2
[libx264 @ 0x55a8308bf840] profile Main, level 5.0, 4:2:0, 8-bit
[libx264 @ 0x55a8308bf840] 264 - core 163 r3060 5db6aa6 - H.264/MPEG-4 AVC codec - Copyleft 2003-2021 - http://www.videolan.org/x264.html - options: cabac=1 ref=1 deblock=1:0:0 analyse=0x1:0 me=dia subme=0 psy=1 psy_rd=1.00:0.00 mixed_ref=0 me_range=4 chroma_me=0 trellis=0 8x8dct=0 cqm=0 deadzone=21,11 fast_pskip=1 chroma_qp_offset=0 threads=6 lookahead_threads=1 sliced_threads=0 nr=0 decimate=1 interlaced=0 bluray_compat=0 constrained_intra=0 bframes=3 b_pyramid=2 b_adapt=1 b_bias=0 direct=1 weightb=1 open_gop=0 weightp=1 keyint=250 keyint_min=25 scenecut=0 intra_refresh=0 rc_lookahead=10 rc=crf mbtree=1 crf=23.0 qcomp=0.60 qpmin=0 qpmax=69 qpstep=4 vbv_maxrate=5697 vbv_bufsize=11394 crf_max=0.0 nal_hrd=none filler=0 ip_ratio=1.40 aq=1:1.00
Output #0, hls, to '/config/data/transcodes/d5789d2c9509f960933b9c84b5249f53.m3u8':
  Metadata:
    encoder         : Lavf59.27.100
  Stream #0:0: Video: h264, yuv420p(tv, bt709, progressive), 720x412 [SAR 1:1 DAR 180:103], q=2-31, 25 fps, 90k tbn
    Metadata:
      encoder         : Lavc59.37.100 libx264
    Side data:
      cpb: bitrate max/min/avg: 5697000/0/0 buffer size: 11394000 vbv_delay: N/A
  Stream #0:1: Audio: aac (LC), 48000 Hz, stereo, fltp (default)
frame=    1 fps=0.7 q=0.0 size=N/A time=00:00:00.00 bitrate=N/A speed=   0x    
frame=    1 fps=0.4 q=0.0 size=N/A time=00:00:00.02 bitrate=N/A speed=0.00925x    
frame=    5 fps=1.7 q=0.0 size=N/A time=00:00:00.14 bitrate=N/A speed=0.0518x    
frame=    6 fps=1.7 q=0.0 size=N/A time=00:00:00.21 bitrate=N/A speed=0.0614x    
frame=    8 fps=2.0 q=0.0 size=N/A time=00:00:00.27 bitrate=N/A speed=0.0698x    
frame=   10 fps=2.2 q=0.0 size=N/A time=00:00:00.36 bitrate=N/A speed=0.0787x    
frame=   13 fps=2.5 q=0.0 size=N/A time=00:00:00.46 bitrate=N/A speed=0.0905x    
frame=   27 fps=4.7 q=28.0 size=N/A time=00:00:01.04 bitrate=N/A speed=0.183x    
frame=   49 fps=7.8 q=28.0 size=N/A time=00:00:01.94 bitrate=N/A speed=0.309x    
frame=   75 fps= 11 q=28.0 size=N/A time=00:00:02.96 bitrate=N/A speed=0.438x    
[hls @ 0x55a8308bf3c0] Opening '/config/data/transcodes/d5789d2c9509f960933b9c84b5249f530.ts' for writing
frame=   98 fps= 13 q=28.0 size=N/A time=00:00:03.88 bitrate=N/A speed=0.533x    
frame=  140 fps= 18 q=28.0 size=N/A time=00:00:05.56 bitrate=N/A speed=0.716x    
[hls @ 0x55a8308bf3c0] Opening '/config/data/transcodes/d5789d2c9509f960933b9c84b5249f531.ts' for writing
frame=  181 fps= 22 q=28.0 size=N/A time=00:00:07.18 bitrate=N/A speed=0.868x    
frame=  231 fps= 26 q=28.0 size=N/A time=00:00:09.19 bitrate=N/A speed=1.05x    
[hls @ 0x55a8308bf3c0] Opening '/config/data/transcodes/d5789d2c9509f960933b9c84b5249f532.ts' for writing
frame=  261 fps= 28 q=28.0 size=N/A time=00:00:10.41 bitrate=N/A speed=1.12x    
frame=  307 fps= 31 q=28.0 size=N/A time=00:00:12.24 bitrate=N/A speed=1.25x    
[hls @ 0x55a8308bf3c0] Opening '/config/data/transcodes/d5789d2c9509f960933b9c84b5249f533.ts' for writing
frame=  357 fps= 35 q=28.0 size=N/A time=00:00:14.25 bitrate=N/A speed=1.38x    
[hls @ 0x55a8308bf3c0] Opening '/config/data/transcodes/d5789d2c9509f960933b9c84b5249f534.ts' for writing
frame=  396 fps= 37 q=28.0 size=N/A time=00:00:15.80 bitrate=N/A speed=1.46x    
frame=  436 fps= 39 q=28.0 size=N/A time=00:00:17.40 bitrate=N/A speed=1.54x    
[hls @ 0x55a8308bf3c0] Opening '/config/data/transcodes/d5789d2c9509f960933b9c84b5249f535.ts' for writing
frame=  475 fps= 40 q=28.0 size=N/A time=00:00:18.96 bitrate=N/A speed=1.61x    
frame=  512 fps= 42 q=28.0 size=N/A time=00:00:20.43 bitrate=N/A speed=1.66x    
[hls @ 0x55a8308bf3c0] Opening '/config/data/transcodes/d5789d2c9509f960933b9c84b5249f536.ts' for writing
frame=  563 fps= 44 q=28.0 size=N/A time=00:00:22.50 bitrate=N/A speed=1.76x    
frame=  620 fps= 47 q=28.0 size=N/A time=00:00:24.76 bitrate=N/A speed=1.86x    
[hls @ 0x55a8308bf3c0] Opening '/config/data/transcodes/d5789d2c9509f960933b9c84b5249f537.ts' for writing
frame=  684 fps= 50 q=28.0 size=N/A time=00:00:27.32 bitrate=N/A speed=1.98x    
[hls @ 0x55a8308bf3c0] Opening '/config/data/transcodes/d5789d2c9509f960933b9c84b5249f538.ts' for writing
frame=  731 fps= 51 q=28.0 size=N/A time=00:00:29.22 bitrate=N/A speed=2.04x    
[hls @ 0x55a8308bf3c0] Opening '/config/data/transcodes/d5789d2c9509f960933b9c84b5249f539.ts' for writing
frame=  784 fps= 53 q=28.0 size=N/A time=00:00:31.31 bitrate=N/A speed=2.11x    
frame=  816 fps= 53 q=28.0 size=N/A time=00:00:32.59 bitrate=N/A speed=2.13x    
frame=  833 fps= 53 q=28.0 size=N/A time=00:00:33.28 bitrate=N/A speed= 2.1x    
frame=  837 fps= 51 q=28.0 size=N/A time=00:00:33.45 bitrate=N/A speed=2.02x    
[hls @ 0x55a8308bf3c0] Opening '/config/data/transcodes/d5789d2c9509f960933b9c84b5249f5310.ts' for writing
frame=  846 fps= 49 q=28.0 size=N/A time=00:00:33.81 bitrate=N/A speed=1.98x    
frame=  869 fps= 49 q=28.0 size=N/A time=00:00:34.70 bitrate=N/A speed=1.97x    
frame=  894 fps= 49 q=28.0 size=N/A time=00:00:35.71 bitrate=N/A speed=1.97x    
frame=  915 fps= 49 q=28.0 size=N/A time=00:00:36.56 bitrate=N/A speed=1.96x    
[hls @ 0x55a8308bf3c0] Opening '/config/data/transcodes/d5789d2c9509f960933b9c84b5249f5311.ts' for writing
frame=  930 fps= 49 q=28.0 size=N/A time=00:00:37.16 bitrate=N/A speed=1.94x    
frame=  956 fps= 49 q=28.0 size=N/A time=00:00:38.20 bitrate=N/A speed=1.95x    
frame=  984 fps= 49 q=28.0 size=N/A time=00:00:39.31 bitrate=N/A speed=1.95x    
[hls @ 0x55a8308bf3c0] Opening '/config/data/transcodes/d5789d2c9509f960933b9c84b5249f5312.ts' for writing
frame= 1008 fps= 49 q=28.0 size=N/A time=00:00:40.27 bitrate=N/A speed=1.95x    
frame= 1043 fps= 49 q=28.0 size=N/A time=00:00:41.68 bitrate=N/A speed=1.97x    
frame= 1066 fps= 49 q=25.0 size=N/A time=00:00:42.60 bitrate=N/A speed=1.97x    
[hls @ 0x55a8308bf3c0] Opening '/config/data/transcodes/d5789d2c9509f960933b9c84b5249f5313.ts' for writing
frame= 1096 fps= 49 q=28.0 size=N/A time=00:00:43.81 bitrate=N/A speed=1.98x    
frame= 1142 fps= 50 q=28.0 size=N/A time=00:00:45.63 bitrate=N/A speed=2.01x    
[hls @ 0x55a8308bf3c0] Opening '/config/data/transcodes/d5789d2c9509f960933b9c84b5249f5314.ts' for writing
frame= 1196 fps= 52 q=28.0 size=N/A time=00:00:47.78 bitrate=N/A speed=2.06x    
[hls @ 0x55a8308bf3c0] Opening '/config/data/transcodes/d5789d2c9509f960933b9c84b5249f5315.ts' for writing
frame= 1250 fps= 53 q=28.0 size=N/A time=00:00:49.96 bitrate=N/A speed=2.11x    
[hls @ 0x55a8308bf3c0] Opening '/config/data/transcodes/d5789d2c9509f960933b9c84b5249f5316.ts' for writing
frame= 1313 fps= 54 q=28.0 size=N/A time=00:00:52.48 bitrate=N/A speed=2.17x    
frame= 1351 fps= 55 q=28.0 size=N/A time=00:00:53.99 bitrate=N/A speed=2.19x    
[hls @ 0x55a8308bf3c0] Opening '/config/data/transcodes/d5789d2c9509f960933b9c84b5249f5317.ts' for writing
frame= 1387 fps= 55 q=28.0 size=N/A time=00:00:55.44 bitrate=N/A speed= 2.2x    
[hls @ 0x55a8308bf3c0] Opening '/config/data/transcodes/d5789d2c9509f960933b9c84b5249f5318.ts' for writing
frame= 1452 fps= 57 q=28.0 size=N/A time=00:00:58.04 bitrate=N/A speed=2.26x    
frame= 1493 fps= 57 q=28.0 size=N/A time=00:00:59.66 bitrate=N/A speed=2.28x    
[hls @ 0x55a8308bf3c0] Opening '/config/data/transcodes/d5789d2c9509f960933b9c84b5249f5319.ts' for writing
frame= 1522 fps= 57 q=28.0 size=N/A time=00:01:00.86 bitrate=N/A speed=2.28x    
frame= 1578 fps= 58 q=28.0 size=N/A time=00:01:03.08 bitrate=N/A speed=2.32x    
[hls @ 0x55a8308bf3c0] Opening '/config/data/transcodes/d5789d2c9509f960933b9c84b5249f5320.ts' for writing
frame= 1669 fps= 60 q=28.0 size=N/A time=00:01:06.73 bitrate=N/A speed=2.41x    
[hls @ 0x55a8308bf3c0] Opening '/config/data/transcodes/d5789d2c9509f960933b9c84b5249f5321.ts' for writing
frame= 1738 fps= 62 q=28.0 size=N/A time=00:01:09.48 bitrate=N/A speed=2.47x    
[hls @ 0x55a8308bf3c0] Opening '/config/data/transcodes/d5789d2c9509f960933b9c84b5249f5322.ts' for writing
frame= 1781 fps= 62 q=28.0 size=N/A time=00:01:11.18 bitrate=N/A speed=2.48x    
[hls @ 0x55a8308bf3c0] Opening '/config/data/transcodes/d5789d2c9509f960933b9c84b5249f5323.ts' for writing
frame= 1857 fps= 64 q=28.0 size=N/A time=00:01:14.24 bitrate=N/A speed=2.54x    
[hls @ 0x55a8308bf3c0] Opening '/config/data/transcodes/d5789d2c9509f960933b9c84b5249f5324.ts' for writing
frame= 1910 fps= 64 q=28.0 size=N/A time=00:01:16.35 bitrate=N/A speed=2.57x    
frame= 1965 fps= 65 q=28.0 size=N/A time=00:01:18.54 bitrate=N/A speed= 2.6x    
[hls @ 0x55a8308bf3c0] Opening '/config/data/transcodes/d5789d2c9509f960933b9c84b5249f5325.ts' for writing
frame= 2023 fps= 66 q=28.0 size=N/A time=00:01:20.87 bitrate=N/A speed=2.63x    
[hls @ 0x55a8308bf3c0] Opening '/config/data/transcodes/d5789d2c9509f960933b9c84b5249f5326.ts' for writing
frame= 2073 fps= 66 q=28.0 size=N/A time=00:01:22.88 bitrate=N/A speed=2.66x    
[hls @ 0x55a8308bf3c0] Opening '/config/data/transcodes/d5789d2c9509f960933b9c84b5249f5327.ts' for writing
frame= 2125 fps= 67 q=28.0 size=N/A time=00:01:24.94 bitrate=N/A speed=2.68x    
frame= 2151 fps= 67 q=28.0 size=N/A time=00:01:25.99 bitrate=N/A speed=2.67x    
frame= 2190 fps= 67 q=28.0 size=N/A time=00:01:27.55 bitrate=N/A speed=2.68x    
[hls @ 0x55a8308bf3c0] Opening '/config/data/transcodes/d5789d2c9509f960933b9c84b5249f5328.ts' for writing
frame= 2232 fps= 67 q=28.0 size=N/A time=00:01:29.23 bitrate=N/A speed=2.69x    
[hls @ 0x55a8308bf3c0] Opening '/config/data/transcodes/d5789d2c9509f960933b9c84b5249f5329.ts' for writing
frame= 2271 fps= 67 q=28.0 size=N/A time=00:01:30.79 bitrate=N/A speed=2.69x    
frame= 2323 fps= 68 q=28.0 size=N/A time=00:01:32.90 bitrate=N/A speed=2.71x    
[hls @ 0x55a8308bf3c0] Opening '/config/data/transcodes/d5789d2c9509f960933b9c84b5249f5330.ts' for writing
frame= 2358 fps= 68 q=28.0 size=N/A time=00:01:34.29 bitrate=N/A speed=2.71x    
frame= 2388 fps= 68 q=28.0 size=N/A time=00:01:35.48 bitrate=N/A speed= 2.7x    
frame= 2417 fps= 67 q=28.0 size=N/A time=00:01:36.66 bitrate=N/A speed= 2.7x    
[hls @ 0x55a8308bf3c0] Opening '/config/data/transcodes/d5789d2c9509f960933b9c84b5249f5331.ts' for writing
frame= 2464 fps= 68 q=28.0 size=N/A time=00:01:38.51 bitrate=N/A speed=2.71x    
[hls @ 0x55a8308bf3c0] Opening '/config/data/transcodes/d5789d2c9509f960933b9c84b5249f5332.ts' for writing
frame= 2496 fps= 68 q=28.0 size=N/A time=00:01:39.79 bitrate=N/A speed= 2.7x    
frame= 2538 fps= 68 q=28.0 size=N/A time=00:01:41.48 bitrate=N/A speed=2.71x    
[hls @ 0x55a8308bf3c0] Opening '/config/data/transcodes/d5789d2c9509f960933b9c84b5249f5333.ts' for writing
frame= 2586 fps= 68 q=28.0 size=N/A time=00:01:43.40 bitrate=N/A speed=2.72x    
frame= 2630 fps= 68 q=28.0 size=N/A time=00:01:45.15 bitrate=N/A speed=2.73x    
[hls @ 0x55a8308bf3c0] Opening '/config/data/transcodes/d5789d2c9509f960933b9c84b5249f5334.ts' for writing
frame= 2689 fps= 69 q=28.0 size=N/A time=00:01:47.49 bitrate=N/A speed=2.76x    
[hls @ 0x55a8308bf3c0] Opening '/config/data/transcodes/d5789d2c9509f960933b9c84b5249f5335.ts' for writing
frame= 2724 fps= 69 q=28.0 size=N/A time=00:01:48.92 bitrate=N/A speed=2.76x    
frame= 2762 fps= 69 q=28.0 size=N/A time=00:01:50.44 bitrate=N/A speed=2.76x    
[hls @ 0x55a8308bf3c0] Opening '/config/data/transcodes/d5789d2c9509f960933b9c84b5249f5336.ts' for writing
frame= 2825 fps= 70 q=28.0 size=N/A time=00:01:52.96 bitrate=N/A speed=2.79x    
[hls @ 0x55a8308bf3c0] Opening '/config/data/transcodes/d5789d2c9509f960933b9c84b5249f5337.ts' for writing
frame= 2901 fps= 71 q=28.0 size=N/A time=00:01:55.98 bitrate=N/A speed=2.83x    
[hls @ 0x55a8308bf3c0] Opening '/config/data/transcodes/d5789d2c9509f960933b9c84b5249f5338.ts' for writing
frame= 2955 fps= 71 q=28.0 size=N/A time=00:01:58.18 bitrate=N/A speed=2.85x    
frame= 2999 fps= 71 q=28.0 size=N/A time=00:01:59.89 bitrate=N/A speed=2.86x    
[hls @ 0x55a8308bf3c0] Opening '/config/data/transcodes/d5789d2c9509f960933b9c84b5249f5339.ts' for writing
frame= 3053 fps= 72 q=28.0 size=N/A time=00:02:02.06 bitrate=N/A speed=2.87x    
[hls @ 0x55a8308bf3c0] Opening '/config/data/transcodes/d5789d2c9509f960933b9c84b5249f5340.ts' for writing
frame= 3096 fps= 72 q=28.0 size=N/A time=00:02:03.81 bitrate=N/A speed=2.88x    
frame= 3137 fps= 72 q=28.0 size=N/A time=00:02:05.46 bitrate=N/A speed=2.88x    
frame= 3157 fps= 72 q=28.0 size=N/A time=00:02:06.22 bitrate=N/A speed=2.87x    
[hls @ 0x55a8308bf3c0] Opening '/config/data/transcodes/d5789d2c9509f960933b9c84b5249f5341.ts' for writing
frame= 3183 fps= 72 q=28.0 size=N/A time=00:02:07.27 bitrate=N/A speed=2.86x    
frame= 3200 fps= 71 q=28.0 size=N/A time=00:02:07.95 bitrate=N/A speed=2.84x    
frame= 3229 fps= 71 q=28.0 size=N/A time=00:02:09.10 bitrate=N/A speed=2.84x    
[hls @ 0x55a8308bf3c0] Opening '/config/data/transcodes/d5789d2c9509f960933b9c84b5249f5342.ts' for writing
frame= 3267 fps= 71 q=28.0 size=N/A time=00:02:10.64 bitrate=N/A speed=2.84x    
frame= 3291 fps= 71 q=28.0 size=N/A time=00:02:11.62 bitrate=N/A speed=2.83x    
frame= 3319 fps= 71 q=28.0 size=N/A time=00:02:12.71 bitrate=N/A speed=2.82x    
[hls @ 0x55a8308bf3c0] Opening '/config/data/transcodes/d5789d2c9509f960933b9c84b5249f5343.ts' for writing
frame= 3342 fps= 70 q=28.0 size=N/A time=00:02:13.61 bitrate=N/A speed=2.81x    
frame= 3384 fps= 70 q=28.0 size=N/A time=00:02:15.31 bitrate=N/A speed=2.82x    
[hls @ 0x55a8308bf3c0] Opening '/config/data/transcodes/d5789d2c9509f960933b9c84b5249f5344.ts' for writing
frame= 3427 fps= 71 q=28.0 size=N/A time=00:02:17.06 bitrate=N/A speed=2.82x    
frame= 3455 fps= 70 q=28.0 size=N/A time=00:02:18.15 bitrate=N/A speed=2.82x    
[hls @ 0x55a8308bf3c0] Opening '/config/data/transcodes/d5789d2c9509f960933b9c84b5249f5345.ts' for writing
frame= 3486 fps= 70 q=28.0 size=N/A time=00:02:19.39 bitrate=N/A speed=2.81x    
frame= 3519 fps= 70 q=28.0 size=N/A time=00:02:20.71 bitrate=N/A speed=2.81x    
[hls @ 0x55a8308bf3c0] Opening '/config/data/transcodes/d5789d2c9509f960933b9c84b5249f5346.ts' for writing
frame= 3559 fps= 70 q=28.0 size=N/A time=00:02:22.31 bitrate=N/A speed=2.81x    
frame= 3591 fps= 70 q=28.0 size=N/A time=00:02:23.59 bitrate=N/A speed=2.81x    
frame= 3617 fps= 70 q=28.0 size=N/A time=00:02:24.64 bitrate=N/A speed= 2.8x    
[hls @ 0x55a8308bf3c0] Opening '/config/data/transcodes/d5789d2c9509f960933b9c84b5249f5347.ts' for writing
frame= 3636 fps= 70 q=28.0 size=N/A time=00:02:25.40 bitrate=N/A speed=2.79x    
frame= 3657 fps= 69 q=28.0 size=N/A time=00:02:26.26 bitrate=N/A speed=2.78x    
frame= 3685 fps= 69 q=28.0 size=N/A time=00:02:27.32 bitrate=N/A speed=2.77x    
[hls @ 0x55a8308bf3c0] Opening '/config/data/transcodes/d5789d2c9509f960933b9c84b5249f5348.ts' for writing
frame= 3721 fps= 69 q=28.0 size=N/A time=00:02:28.80 bitrate=N/A speed=2.77x    
frame= 3756 fps= 69 q=28.0 size=N/A time=00:02:30.20 bitrate=N/A speed=2.77x    
[hls @ 0x55a8308bf3c0] Opening '/config/data/transcodes/d5789d2c9509f960933b9c84b5249f5349.ts' for writing
frame= 3781 fps= 69 q=28.0 size=N/A time=00:02:31.18 bitrate=N/A speed=2.76x    
frame= 3807 fps= 69 q=28.0 size=N/A time=00:02:32.23 bitrate=N/A speed=2.75x    
frame= 3838 fps= 69 q=28.0 size=N/A time=00:02:33.47 bitrate=N/A speed=2.75x    
[hls @ 0x55a8308bf3c0] Opening '/config/data/transcodes/d5789d2c9509f960933b9c84b5249f5350.ts' for writing
frame= 3866 fps= 69 q=28.0 size=N/A time=00:02:34.60 bitrate=N/A speed=2.75x    
frame= 3905 fps= 69 q=28.0 size=N/A time=00:02:36.16 bitrate=N/A speed=2.75x    
[hls @ 0x55a8308bf3c0] Opening '/config/data/transcodes/d5789d2c9509f960933b9c84b5249f5351.ts' for writing
frame= 3931 fps= 69 q=28.0 size=N/A time=00:02:37.22 bitrate=N/A speed=2.74x    
frame= 3963 fps= 69 q=28.0 size=N/A time=00:02:38.48 bitrate=N/A speed=2.74x    
frame= 3983 fps= 68 q=28.0 size=N/A time=00:02:39.27 bitrate=N/A speed=2.73x    
[hls @ 0x55a8308bf3c0] Opening '/config/data/transcodes/d5789d2c9509f960933b9c84b5249f5352.ts' for writing
frame= 4015 fps= 68 q=28.0 size=N/A time=00:02:40.55 bitrate=N/A speed=2.73x    
frame= 4043 fps= 68 q=28.0 size=N/A time=00:02:41.68 bitrate=N/A speed=2.72x    
frame= 4059 fps= 68 q=28.0 size=N/A time=00:02:42.34 bitrate=N/A speed=2.71x    
[hls @ 0x55a8308bf3c0] Opening '/config/data/transcodes/d5789d2c9509f960933b9c84b5249f5353.ts' for writing
frame= 4097 fps= 68 q=28.0 size=N/A time=00:02:43.84 bitrate=N/A speed=2.71x    
frame= 4121 fps= 68 q=28.0 size=N/A time=00:02:44.80 bitrate=N/A speed=2.71x    
[hls @ 0x55a8308bf3c0] Opening '/config/data/transcodes/d5789d2c9509f960933b9c84b5249f5354.ts' for writing
frame= 4146 fps= 68 q=28.0 size=N/A time=00:02:45.80 bitrate=N/A speed= 2.7x    
frame= 4161 fps= 67 q=28.0 size=N/A time=00:02:46.37 bitrate=N/A speed=2.68x    
frame= 4173 fps= 67 q=28.0 size=N/A time=00:02:46.86 bitrate=N/A speed=2.67x    
frame= 4192 fps= 66 q=28.0 size=N/A time=00:02:47.63 bitrate=N/A speed=2.66x    
frame= 4213 fps= 66 q=28.0 size=N/A time=00:02:48.49 bitrate=N/A speed=2.65x    
[hls @ 0x55a8308bf3c0] Opening '/config/data/transcodes/d5789d2c9509f960933b9c84b5249f5355.ts' for writing
frame= 4237 fps= 66 q=28.0 size=N/A time=00:02:49.40 bitrate=N/A speed=2.64x    
frame= 4253 fps= 66 q=28.0 size=N/A time=00:02:50.06 bitrate=N/A speed=2.63x    
frame= 4278 fps= 66 q=28.0 size=N/A time=00:02:51.07 bitrate=N/A speed=2.62x    
[hls @ 0x55a8308bf3c0] Opening '/config/data/transcodes/d5789d2c9509f960933b9c84b5249f5356.ts' for writing
frame= 4298 fps= 65 q=28.0 size=N/A time=00:02:51.88 bitrate=N/A speed=2.62x    
frame= 4330 fps= 65 q=28.0 size=N/A time=00:02:53.16 bitrate=N/A speed=2.62x    
frame= 4353 fps= 65 q=28.0 size=N/A time=00:02:54.08 bitrate=N/A speed=2.61x    
frame= 4366 fps= 65 q=25.0 size=N/A time=00:02:54.59 bitrate=N/A speed= 2.6x    
[hls @ 0x55a8308bf3c0] Opening '/config/data/transcodes/d5789d2c9509f960933b9c84b5249f5357.ts' for writing
frame= 4381 fps= 65 q=28.0 size=N/A time=00:02:55.18 bitrate=N/A speed=2.59x    
frame= 4413 fps= 65 q=28.0 size=N/A time=00:02:56.49 bitrate=N/A speed=2.59x    
frame= 4435 fps= 65 q=28.0 size=N/A time=00:02:57.36 bitrate=N/A speed=2.58x    
[hls @ 0x55a8308bf3c0] Opening '/config/data/transcodes/d5789d2c9509f960933b9c84b5249f5358.ts' for writing
frame= 4456 fps= 64 q=28.0 size=N/A time=00:02:58.19 bitrate=N/A speed=2.57x    
frame= 4471 fps= 64 q=28.0 size=N/A time=00:02:58.79 bitrate=N/A speed=2.56x    
frame= 4495 fps= 64 q=28.0 size=N/A time=00:02:59.75 bitrate=N/A speed=2.56x    
[hls @ 0x55a8308bf3c0] Opening '/config/data/transcodes/d5789d2c9509f960933b9c84b5249f5359.ts' for writing
frame= 4527 fps= 64 q=28.0 size=N/A time=00:03:01.03 bitrate=N/A speed=2.55x    
frame= 4559 fps= 64 q=28.0 size=N/A time=00:03:02.31 bitrate=N/A speed=2.55x    
[hls @ 0x55a8308bf3c0] Opening '/config/data/transcodes/d5789d2c9509f960933b9c84b5249f5360.ts' for writing
frame= 4599 fps= 64 q=28.0 size=N/A time=00:03:03.91 bitrate=N/A speed=2.56x    
frame= 4631 fps= 64 q=28.0 size=N/A time=00:03:05.19 bitrate=N/A speed=2.56x    
frame= 4666 fps= 64 q=25.0 size=N/A time=00:03:06.60 bitrate=N/A speed=2.56x    
[hls @ 0x55a8308bf3c0] Opening '/config/data/transcodes/d5789d2c9509f960933b9c84b5249f5361.ts' for writing
frame= 4681 fps= 64 q=28.0 size=N/A time=00:03:07.20 bitrate=N/A speed=2.55x    
frame= 4693 fps= 63 q=28.0 size=N/A time=00:03:07.69 bitrate=N/A speed=2.53x    
frame= 4702 fps= 63 q=28.0 size=N/A time=00:03:08.05 bitrate=N/A speed=2.52x    
frame= 4718 fps= 63 q=28.0 size=N/A time=00:03:08.67 bitrate=N/A speed=2.51x    
frame= 4735 fps= 63 q=28.0 size=N/A time=00:03:09.35 bitrate=N/A speed= 2.5x    
[hls @ 0x55a8308bf3c0] Opening '/config/data/transcodes/d5789d2c9509f960933b9c84b5249f5362.ts' for writing
frame= 4756 fps= 62 q=28.0 size=N/A time=00:03:10.20 bitrate=N/A speed= 2.5x    
frame= 4772 fps= 62 q=28.0 size=N/A time=00:03:10.84 bitrate=N/A speed=2.49x    
frame= 4778 fps= 62 q=28.0 size=N/A time=00:03:11.08 bitrate=N/A speed=2.48x    
frame= 4788 fps= 62 q=28.0 size=N/A time=00:03:11.48 bitrate=N/A speed=2.46x    
frame= 4804 fps= 61 q=28.0 size=N/A time=00:03:12.12 bitrate=N/A speed=2.45x    
[hls @ 0x55a8308bf3c0] Opening '/config/data/transcodes/d5789d2c9509f960933b9c84b5249f5363.ts' for writing
frame= 4821 fps= 61 q=28.0 size=N/A time=00:03:12.78 bitrate=N/A speed=2.43x    
frame= 4826 fps= 61 q=28.0 size=N/A time=00:03:13.00 bitrate=N/A speed=2.42x    
frame= 4846 fps= 60 q=28.0 size=N/A time=00:03:13.81 bitrate=N/A speed=2.42x    
frame= 4854 fps= 60 q=28.0 size=N/A time=00:03:14.11 bitrate=N/A speed=2.41x    
frame= 4867 fps= 60 q=28.0 size=N/A time=00:03:14.64 bitrate=N/A speed= 2.4x    
frame= 4880 fps= 60 q=28.0 size=N/A time=00:03:15.15 bitrate=N/A speed=2.38x    
frame= 4888 fps= 59 q=28.0 size=N/A time=00:03:15.49 bitrate=N/A speed=2.37x    
[hls @ 0x55a8308bf3c0] Opening '/config/data/transcodes/d5789d2c9509f960933b9c84b5249f5364.ts' for writing
frame= 4896 fps= 59 q=28.0 size=N/A time=00:03:15.79 bitrate=N/A speed=2.36x    
frame= 4904 fps= 59 q=28.0 size=N/A time=00:03:16.11 bitrate=N/A speed=2.35x    
frame= 4922 fps= 58 q=28.0 size=N/A time=00:03:16.84 bitrate=N/A speed=2.34x    
frame= 4931 fps= 58 q=28.0 size=N/A time=00:03:17.22 bitrate=N/A speed=2.33x    
frame= 4947 fps= 58 q=28.0 size=N/A time=00:03:17.84 bitrate=N/A speed=2.32x    
frame= 4957 fps= 58 q=28.0 size=N/A time=00:03:18.22 bitrate=N/A speed=2.31x    
[hls @ 0x55a8308bf3c0] Opening '/config/data/transcodes/d5789d2c9509f960933b9c84b5249f5365.ts' for writing
frame= 4972 fps= 57 q=28.0 size=N/A time=00:03:18.84 bitrate=N/A speed= 2.3x    
frame= 4987 fps= 57 q=28.0 size=N/A time=00:03:19.46 bitrate=N/A speed=2.29x    
frame= 5006 fps= 57 q=28.0 size=N/A time=00:03:20.21 bitrate=N/A speed=2.28x    
frame= 5030 fps= 57 q=28.0 size=N/A time=00:03:21.17 bitrate=N/A speed=2.28x    
frame= 5040 fps= 57 q=28.0 size=N/A time=00:03:21.55 bitrate=N/A speed=2.27x    
[hls @ 0x55a8308bf3c0] Opening '/config/data/transcodes/d5789d2c9509f960933b9c84b5249f5366.ts' for writing
frame= 5056 fps= 57 q=28.0 size=N/A time=00:03:22.19 bitrate=N/A speed=2.27x    
frame= 5068 fps= 56 q=28.0 size=N/A time=00:03:22.68 bitrate=N/A speed=2.26x    
frame= 5077 fps= 56 q=28.0 size=N/A time=00:03:23.02 bitrate=N/A speed=2.25x    
frame= 5095 fps= 56 q=28.0 size=N/A time=00:03:23.75 bitrate=N/A speed=2.24x    
frame= 5109 fps= 56 q=28.0 size=N/A time=00:03:24.30 bitrate=N/A speed=2.23x    
frame= 5118 fps= 56 q=28.0 size=N/A time=00:03:24.67 bitrate=N/A speed=2.23x    
[hls @ 0x55a8308bf3c0] Opening '/config/data/transcodes/d5789d2c9509f960933b9c84b5249f5367.ts' for writing
frame= 5136 fps= 55 q=28.0 size=N/A time=00:03:25.39 bitrate=N/A speed=2.22x    
frame= 5152 fps= 55 q=28.0 size=N/A time=00:03:26.03 bitrate=N/A speed=2.21x    
frame= 5158 fps= 55 q=28.0 size=N/A time=00:03:26.29 bitrate=N/A speed= 2.2x    
frame= 5166 fps= 55 q=28.0 size=N/A time=00:03:26.59 bitrate=N/A speed=2.19x    
frame= 5174 fps= 55 q=28.0 size=N/A time=00:03:26.91 bitrate=N/A speed=2.18x    
frame= 5189 fps= 54 q=28.0 size=N/A time=00:03:27.53 bitrate=N/A speed=2.18x    
[hls @ 0x55a8308bf3c0] Opening '/config/data/transcodes/d5789d2c9509f960933b9c84b5249f5368.ts' for writing
frame= 5198 fps= 54 q=28.0 size=N/A time=00:03:27.89 bitrate=N/A speed=2.17x    
frame= 5211 fps= 54 q=28.0 size=N/A time=00:03:28.40 bitrate=N/A speed=2.16x    
frame= 5223 fps= 54 q=28.0 size=N/A time=00:03:28.85 bitrate=N/A speed=2.15x    
frame= 5239 fps= 54 q=28.0 size=N/A time=00:03:29.51 bitrate=N/A speed=2.15x    
frame= 5248 fps= 53 q=28.0 size=N/A time=00:03:29.87 bitrate=N/A speed=2.14x    
frame= 5254 fps= 53 q=28.0 size=N/A time=00:03:30.11 bitrate=N/A speed=2.13x    
frame= 5265 fps= 53 q=28.0 size=N/A time=00:03:30.56 bitrate=N/A speed=2.12x    
[hls @ 0x55a8308bf3c0] Opening '/config/data/transcodes/d5789d2c9509f960933b9c84b5249f5369.ts' for writing
frame= 5286 fps= 53 q=28.0 size=N/A time=00:03:31.39 bitrate=N/A speed=2.12x    
frame= 5310 fps= 53 q=28.0 size=N/A time=00:03:32.35 bitrate=N/A speed=2.12x    
frame= 5336 fps= 53 q=28.0 size=N/A time=00:03:33.41 bitrate=N/A speed=2.12x    
[hls @ 0x55a8308bf3c0] Opening '/config/data/transcodes/d5789d2c9509f960933b9c84b5249f5370.ts' for writing
frame= 5367 fps= 53 q=28.0 size=N/A time=00:03:34.63 bitrate=N/A speed=2.12x    
frame= 5399 fps= 53 q=28.0 size=N/A time=00:03:35.91 bitrate=N/A speed=2.12x    
frame= 5419 fps= 53 q=28.0 size=N/A time=00:03:36.72 bitrate=N/A speed=2.12x    
[hls @ 0x55a8308bf3c0] Opening '/config/data/transcodes/d5789d2c9509f960933b9c84b5249f5371.ts' for writing
frame= 5449 fps= 53 q=28.0 size=N/A time=00:03:37.92 bitrate=N/A speed=2.12x    
frame= 5473 fps= 53 q=28.0 size=N/A time=00:03:38.88 bitrate=N/A speed=2.12x    
[hls @ 0x55a8308bf3c0] Opening '/config/data/transcodes/d5789d2c9509f960933b9c84b5249f5372.ts' for writing
frame= 5502 fps= 53 q=28.0 size=N/A time=00:03:40.03 bitrate=N/A speed=2.12x    
frame= 5515 fps= 53 q=28.0 size=N/A time=00:03:40.58 bitrate=N/A speed=2.11x    
frame= 5520 fps= 53 q=28.0 size=N/A time=00:03:40.77 bitrate=N/A speed= 2.1x    
frame= 5535 fps= 52 q=28.0 size=N/A time=00:03:41.35 bitrate=N/A speed= 2.1x    
frame= 5544 fps= 52 q=28.0 size=N/A time=00:03:41.73 bitrate=N/A speed=2.09x    
frame= 5553 fps= 52 q=28.0 size=N/A time=00:03:42.08 bitrate=N/A speed=2.08x    
frame= 5566 fps= 52 q=25.0 size=N/A time=00:03:42.59 bitrate=N/A speed=2.08x    
[hls @ 0x55a8308bf3c0] Opening '/config/data/transcodes/d5789d2c9509f960933b9c84b5249f5373.ts' for writing
frame= 5578 fps= 52 q=28.0 size=N/A time=00:03:43.08 bitrate=N/A speed=2.07x    
frame= 5586 fps= 52 q=28.0 size=N/A time=00:03:43.40 bitrate=N/A speed=2.07x    
frame= 5594 fps= 51 q=28.0 size=N/A time=00:03:43.72 bitrate=N/A speed=2.06x    
frame= 5606 fps= 51 q=28.0 size=N/A time=00:03:44.19 bitrate=N/A speed=2.05x    
frame= 5614 fps= 51 q=28.0 size=N/A time=00:03:44.51 bitrate=N/A speed=2.05x    
frame= 5629 fps= 51 q=28.0 size=N/A time=00:03:45.10 bitrate=N/A speed=2.04x    
frame= 5637 fps= 51 q=28.0 size=N/A time=00:03:45.42 bitrate=N/A speed=2.03x    
frame= 5643 fps= 51 q=28.0 size=N/A time=00:03:45.68 bitrate=N/A speed=2.03x    
[hls @ 0x55a8308bf3c0] Opening '/config/data/transcodes/d5789d2c9509f960933b9c84b5249f5374.ts' for writing
frame= 5651 fps= 50 q=28.0 size=N/A time=00:03:46.00 bitrate=N/A speed=2.01x    

[q] command received. Exiting.

[hls @ 0x55a8308bf3c0] Opening '/config/data/transcodes/d5789d2c9509f960933b9c84b5249f5375.ts' for writing
frame= 5664 fps= 50 q=-1.0 Lsize=N/A time=00:03:46.49 bitrate=N/A speed=1.98x    
video:20123kB audio:3562kB subtitle:0kB other streams:0kB global headers:0kB muxing overhead: unknown
[libx264 @ 0x55a8308bf840] frame I:76    Avg QP:19.73  size: 31342
[libx264 @ 0x55a8308bf840] frame P:1698  Avg QP:23.10  size:  8006
[libx264 @ 0x55a8308bf840] frame B:3890  Avg QP:25.77  size:  1190
[libx264 @ 0x55a8308bf840] consecutive B-frames:  4.2% 11.1%  4.9% 79.9%
[libx264 @ 0x55a8308bf840] mb I  I16..4: 22.7%  0.0% 77.3%
[libx264 @ 0x55a8308bf840] mb P  I16..4: 14.1%  0.0%  0.0%  P16..4: 53.7%  0.0%  0.0%  0.0%  0.0%    skip:32.2%
[libx264 @ 0x55a8308bf840] mb B  I16..4:  1.0%  0.0%  0.0%  B16..8: 12.5%  0.0%  0.0%  direct: 7.8%  skip:78.8%  L0:33.3% L1:42.6% BI:24.1%
[libx264 @ 0x55a8308bf840] coded y,uvDC,uvAC intra: 54.2% 67.7% 31.8% inter: 10.2% 11.6% 0.5%
[libx264 @ 0x55a8308bf840] i16 v,h,dc,p: 43% 30% 13% 14%
[libx264 @ 0x55a8308bf840] i4 v,h,dc,ddl,ddr,vr,hd,vl,hu: 34% 23%  9%  6%  5%  6%  5%  6%  6%
[libx264 @ 0x55a8308bf840] i8c dc,h,v,p: 30% 28% 32% 10%
[libx264 @ 0x55a8308bf840] Weighted P-Frames: Y:2.2% UV:1.6%
[libx264 @ 0x55a8308bf840] kb/s:727.60